# xmcd
#
# Track frame offsets: 
#        182
#        20077
#        35642
#        47765
#        70820
#        89020
#        109092
#        130630
#        152122
#        178637
#        194340
#
# Disc length: 2875 seconds
#
# Revision: 3
# Processed by: cddbd v1.5.2PL0 Copyright (c) Steve Scherf et al.
# Submitted via: ExactAudioCopy v0.99pb5
#
DISCID=970b390b
DTITLE=Bill Deraime - Mister Blues
DYEAR=1990
DGENRE=Blues
TTITLE0=Faut que j'me tire ailleurs
TTITLE1=Mean old blues
TTITLE2=C'est dur
TTITLE3=By bye Mister Blues
TTITLE4=Sur ma chaîne bon marché
TTITLE5=Qu'est-ce que tu vas faire
TTITLE6=Babylone tu déconnes
TTITLE7=Plus la peine de frimer
TTITLE8=Je m'sentais mal
TTITLE9=Géraldine
TTITLE10=Un dernier blues
EXTD=YEAR: 1990
EXTT0=
EXTT1=
EXTT2=
EXTT3=
EXTT4=
EXTT5=
EXTT6=
EXTT7=
EXTT8=
EXTT9=
EXTT10=
PLAYORDER=
